<?xml version="1.0" encoding="utf-8"?>
<!-- Generator: Adobe Illustrator 23.0.2, SVG Export Plug-In . SVG Version: 6.00 Build 0)  -->
<svg version="1.1" id="Layer_1" xmlns="http://www.w3.org/2000/svg" xmlns:xlink="http://www.w3.org/1999/xlink" x="0px" y="0px"
	 viewBox="0 0 240 240" style="enable-background:new 0 0 240 240;" xml:space="preserve">

<path d="M171.34,88.32l0,36.77c0,1.31-0.94,2.5-2.24,2.63c-1.5,0.15-2.76-1.02-2.76-2.49V90.71l-42.85,20.43
	c-0.35,0.17-0.57,0.52-0.57,0.9v107.62c0,0.74,0.77,1.22,1.43,0.9l92.18-43.94c0.35-0.17,0.57-0.52,0.57-0.9V68.1
	c0-0.74-0.77-1.22-1.43-0.9L171.34,88.32z"/>
<path d="M23.91,68.13v107.6c0,0.38,0.22,0.73,0.57,0.9l91.01,43.9c0.66,0.32,1.43-0.16,1.43-0.9v-107.6c0-0.38-0.22-0.73-0.57-0.9
	l-91.01-43.9C24.68,66.91,23.91,67.39,23.91,68.13z M53.69,119.38c2.44-6.38,8.58-8.46,15.25-5.14c7.1,3.54,14.51,13.88,15.39,27.14
	c-1.11-0.95-2.74-2.31-3.7-3.03c-0.22-4.3-3.55-16.41-11.4-20.16c-2.81-1.32-6.96-1.96-9.1-0.11c-2.59,2.11-4.07,5.49-4.37,10.09
	c-0.44,6.11,0.81,12.59,3.85,19.48c0.15-0.01,0.37,0.11,0.52,0.18l0.15,0.07c2.22,1.11,4.07,3.93,4.14,6.34
	c0.07,2.49-1.7,3.66-4,2.6l-0.15-0.07c-2.22-1.11-4.07-3.93-4.14-6.34c-0.07-0.91,0.15-1.67,0.52-2.04
	C52.51,138.65,50.29,127.81,53.69,119.38z M59.98,167.92c-1.48-0.34-2.96-0.92-4.44-1.66c-5.48-2.73-10.44-7.65-12.88-12.83
	c-3.26-6.92-4.37-18.71,6.36-21.67c0.22,1.38,0.67,3.34,0.96,4.51c-1.41,0.41-3.63,1.52-5.03,3.82c-2,3.2-1.78,7.5,0.59,12.56
	c1.63,3.42,4.22,6.3,7.55,8.43c4.07,2.58,8.14,3.82,12.06,3.56c5.77-0.37,9.62-2.32,12.14-6.37c-0.67-1.04-1.11-2.29-1.18-3.52
	c-0.07-2.49,1.7-3.66,4-2.6l0.15,0.07c2.22,1.11,4.07,3.93,4.14,6.34s-1.55,3.58-3.7,2.74C76.64,168.23,69.46,170.67,59.98,167.92z
	 M97.29,179c-2,3.2-7.25,4.77-14.36,1.23c-3.11-1.55-6.36-4.04-9.55-7.21c1.04-0.27,2.52-0.8,3.33-1.19
	c1.48,1.45,4.29,3.8,7.25,5.28c4.59,2.29,8.07,1.73,10.14-1.43c1.33-2.1,1.41-5.31,0.15-9.26c-1.48-4.85-4.14-9.58-7.84-14.04
	c-4.81-5.8-10.14-10.2-15.76-13l-1.33-0.66c-0.59,1.21-2,1.61-3.63,0.88l-0.15-0.07c-2.22-1.11-4.07-3.93-4.14-6.34
	c-0.07-2.49,1.7-3.66,4-2.6l0.15,0.07c1.55,0.77,2.96,2.42,3.63,4.18l1.18,0.59c9.47,4.72,17.76,12.73,23.39,22.58
	C99.28,167.5,99.43,175.48,97.29,179z"/>

	<path d="M72.14,40.38L29.68,60.86c-0.75,0.36-0.75,1.44,0,1.8l89.82,43.32c0.27,0.13,0.59,0.13,0.86,0l42.21-20.12L72.14,40.38z"/>
	<path d="M168.28,83.14l42.95-20.48c0.76-0.36,0.76-1.44,0-1.81l-90.87-43.32c-0.27-0.13-0.59-0.13-0.86,0l-41.67,20.1L168.28,83.14
		z"/>

</svg>
